<?xml version="1.0" encoding="UTF-8"?>
<svg width="399px" height="487px" viewBox="0 0 399 487" version="1.1" xmlns="http://www.w3.org/2000/svg" xmlns:xlink="http://www.w3.org/1999/xlink">
    <!-- Generator: Sketch 51.2 (57519) - http://www.bohemiancoding.com/sketch -->
    <title>Group 3</title>
    <desc>Created with Sketch.</desc>
    <defs></defs>
    <g id="Page-1" stroke="none" stroke-width="1" fill="none" fill-rule="evenodd">
        <g id="Top" transform="translate(-791.000000, -4702.000000)" fill="#FFFFFF" fill-rule="nonzero">
            <g id="footer" transform="translate(1.000000, 4642.000000)">
                <g id="Group-3" transform="translate(790.000000, 60.000000)">
                    <g id="Group-2" transform="translate(0.000000, 415.673152)">
                        <rect id="Rectangle-path" x="0.458314448" y="0.266509676" width="5.14507697" height="46.7354226"></rect>
                        <rect id="Rectangle-path" x="0.45832588" y="0.266502359" width="30.8704577" height="5.12169107"></rect>
                        <rect id="Rectangle-path" x="0.458316081" y="41.8802364" width="30.8704675" height="5.12169107"></rect>
                        <rect id="Rectangle-path" x="0.458322614" y="16.271829" width="30.8704675" height="5.121674"></rect>
                        <rect id="Rectangle-path" x="66.9485136" y="0.389763277" width="5.14507778" height="46.7354324"></rect>
                        <rect id="Rectangle-path" x="41.2231239" y="42.0035046" width="30.8704675" height="5.12169107"></rect>
                        <rect id="Rectangle-path" x="41.2231247" y="16.3950777" width="30.8704675" height="5.12167643"></rect>
                        <rect id="Rectangle-path" x="41.2231484" y="16.3950485" width="5.14504349" height="30.7301472"></rect>
                        <rect id="Rectangle-path" x="107.758276" y="20.2172387" width="5.14507778" height="50.7736135"></rect>
                        <rect id="Rectangle-path" x="82.032896" y="42.0035339" width="30.8704675" height="5.12169107"></rect>
                        <rect id="Rectangle-path" x="82.0328772" y="16.3951119" width="30.8704675" height="5.12167156"></rect>
                        <rect id="Rectangle-path" x="82.0329164" y="16.3950875" width="5.14504839" height="30.7301472"></rect>
                        <rect id="Rectangle-path" x="82.0329058" y="54.9436002" width="5.14505818" height="16.047213"></rect>
                        <rect id="Rectangle-path" x="82.032896" y="65.8691124" width="30.8704675" height="5.12169107"></rect>
                        <rect id="Rectangle-path" x="148.523045" y="16.395146" width="5.14507778" height="14.971018"></rect>
                        <rect id="Rectangle-path" x="122.79766" y="42.0035729" width="30.8704675" height="5.12169107"></rect>
                        <rect id="Rectangle-path" x="122.797667" y="16.3951509" width="30.8704675" height="5.12167156"></rect>
                        <rect id="Rectangle-path" x="122.797684" y="16.395107" width="5.14504839" height="30.7301472"></rect>
                        <rect id="Rectangle-path" x="122.797674" y="26.244486" width="30.8704675" height="5.12167156"></rect>
                        <rect id="Rectangle-path" x="163.562432" y="16.3613846" width="5.14507778" height="14.971018"></rect>
                        <rect id="Rectangle-path" x="163.56244" y="42.0372262" width="30.8704675" height="5.12169107"></rect>
                        <rect id="Rectangle-path" x="163.562443" y="16.3614001" width="30.8704675" height="5.12167156"></rect>
                        <rect id="Rectangle-path" x="163.562444" y="26.2107441" width="30.8704675" height="5.12167156"></rect>
                        <rect id="Rectangle-path" x="189.287802" y="26.2106336" width="5.14507778" height="20.9483625"></rect>
                        <rect id="Rectangle-path" x="204.327224" y="26.2107246" width="30.8704675" height="5.12167156"></rect>
                        <rect id="Rectangle-path" x="257.954663" y="0.51293884" width="5.14507778" height="46.7354422"></rect>
                        <rect id="Rectangle-path" x="245.092001" y="16.5181899" width="30.8704675" height="5.12167156"></rect>
                        <rect id="Rectangle-path" x="311.582793" y="16.395107" width="5.14507778" height="14.971018"></rect>
                        <rect id="Rectangle-path" x="285.857394" y="42.0035631" width="30.8704675" height="5.12169107"></rect>
                        <rect id="Rectangle-path" x="285.857412" y="16.3951411" width="30.8704675" height="5.12167156"></rect>
                        <rect id="Rectangle-path" x="285.857404" y="16.395107" width="5.14503859" height="30.7301472"></rect>
                        <rect id="Rectangle-path" x="285.857422" y="26.244486" width="30.8704675" height="5.12167156"></rect>
                        <rect id="Rectangle-path" x="326.622172" y="42.0035241" width="30.8704675" height="5.12169107"></rect>
                        <rect id="Rectangle-path" x="326.622184" y="16.3950826" width="30.8704675" height="5.12169107"></rect>
                        <rect id="Rectangle-path" x="326.622153" y="16.395107" width="5.14503859" height="30.7301472"></rect>
                        <rect id="Rectangle-path" x="367.38694" y="0.512929086" width="5.14507778" height="46.7354324"></rect>
                        <rect id="Rectangle-path" x="367.386966" y="16.5182484" width="30.8704675" height="5.12169107"></rect>
                        <rect id="Rectangle-path" x="393.11233" y="16.5182338" width="5.14503859" height="30.7301472"></rect>
                    </g>
                    <g id="Group" transform="translate(17.325643, 0.000000)">
                        <polygon id="Shape" points="98.4504166 343.292322 363.838496 168.649844 106.830442 290.709753"></polygon>
                        <polygon id="Shape" points="340.72405 181.249273 294.94704 207.17392 0 134.406221"></polygon>
                        <polygon id="Shape" points="26.538808 139.85408 79.0066852 149.815851 182.347293 0"></polygon>
                        <polygon id="Shape" points="99.2529169 322.674789 104.443051 316.753514 94.1699637 368.97504"></polygon>
                        <polygon id="Shape" points="117.284409 256.827174 109.724262 293.624852 109.724262 293.628186 101.874779 302.199974 105.615708 269.573167 105.615708 269.569833"></polygon>
                        <polygon id="Shape" points="127.557496 198.613014 120.604671 233.715672 107.011322 249.122359 110.44993 218.001654"></polygon>
                        <polygon id="Shape" points="140.398855 137.830583 132.726682 175.825187 113.003956 197.756924 116.798328 164.070815"></polygon>
                        <polygon id="Shape" points="152.384123 78.7603333 145.029363 115.017763 145.029363 115.021082 118.996591 143.823217 122.637163 111.671843"></polygon>
                        <polygon id="Shape" points="164.369391 19.6900833 157.192585 55.0929381 124.989225 90.7456014 128.539043 59.3763205"></polygon>
                    </g>
                </g>
            </g>
        </g>
    </g>
</svg>