<?xml version="1.0" encoding="UTF-8"?>
<svg width="212px" height="40px" viewBox="0 0 212 40" version="1.1" xmlns="http://www.w3.org/2000/svg" xmlns:xlink="http://www.w3.org/1999/xlink">
    <!-- Generator: Sketch 51.2 (57519) - http://www.bohemiancoding.com/sketch -->
    <title>logo_text</title>
    <desc>Created with Sketch.</desc>
    <defs></defs>
    <g id="Page-1" stroke="none" stroke-width="1" fill="none" fill-rule="evenodd">
        <g id="Top" transform="translate(-441.000000, -15.000000)" fill="#FFFFFF" fill-rule="nonzero">
            <g id="header" transform="translate(1.000000, 0.000000)">
                <g id="logo_text" transform="translate(440.000000, 15.000000)">
                    <rect id="Rectangle-path" x="48.1885432" y="7.74843631" width="2.1166021" height="19.3139938"></rect>
                    <rect id="Rectangle-path" x="48.1885479" y="7.74843328" width="12.6996109" height="2.11660244"></rect>
                    <rect id="Rectangle-path" x="48.1885439" y="24.9458257" width="12.699615" height="2.11660244"></rect>
                    <rect id="Rectangle-path" x="48.1885466" y="14.3628333" width="12.699615" height="2.11659538"></rect>
                    <rect id="Rectangle-path" x="75.5415442" y="7.79937239" width="2.11660244" height="19.3139978"></rect>
                    <rect id="Rectangle-path" x="64.9585317" y="24.9967678" width="12.699615" height="2.11660244"></rect>
                    <rect id="Rectangle-path" x="64.958532" y="14.4137674" width="12.699615" height="2.11659639"></rect>
                    <rect id="Rectangle-path" x="64.9585418" y="14.4137553" width="2.11658833" height="12.699615"></rect>
                    <rect id="Rectangle-path" x="92.3300256" y="15.9933228" width="2.11660244" height="20.9828263"></rect>
                    <rect id="Rectangle-path" x="81.7470171" y="24.9967799" width="12.699615" height="2.11660244"></rect>
                    <rect id="Rectangle-path" x="81.7470093" y="14.4137815" width="12.699615" height="2.11659438"></rect>
                    <rect id="Rectangle-path" x="81.7470255" y="14.4137714" width="2.11659035" height="12.699615"></rect>
                    <rect id="Rectangle-path" x="81.7470211" y="30.344423" width="2.11659438" height="6.63171005"></rect>
                    <rect id="Rectangle-path" x="81.7470171" y="34.8595266" width="12.699615" height="2.11660244"></rect>
                    <rect id="Rectangle-path" x="109.099997" y="14.4137956" width="2.11660244" height="6.18695913"></rect>
                    <rect id="Rectangle-path" x="98.5169867" y="24.996796" width="12.699615" height="2.11660244"></rect>
                    <rect id="Rectangle-path" x="98.5169897" y="14.4137976" width="12.699615" height="2.11659438"></rect>
                    <rect id="Rectangle-path" x="98.5169968" y="14.4137795" width="2.11659035" height="12.699615"></rect>
                    <rect id="Rectangle-path" x="98.5169928" y="18.4841576" width="12.699615" height="2.11659438"></rect>
                    <rect id="Rectangle-path" x="115.28696" y="14.3998433" width="2.11660244" height="6.18695913"></rect>
                    <rect id="Rectangle-path" x="115.286963" y="25.0107036" width="12.699615" height="2.11660244"></rect>
                    <rect id="Rectangle-path" x="115.286964" y="14.3998496" width="12.699615" height="2.11659438"></rect>
                    <rect id="Rectangle-path" x="115.286965" y="18.4702134" width="12.699615" height="2.11659438"></rect>
                    <rect id="Rectangle-path" x="125.869965" y="18.4701677" width="2.11660244" height="8.65717096"></rect>
                    <rect id="Rectangle-path" x="132.056941" y="18.4702053" width="12.699615" height="2.11659438"></rect>
                    <rect id="Rectangle-path" x="154.118409" y="7.85027622" width="2.11660244" height="19.3140019"></rect>
                    <rect id="Rectangle-path" x="148.826917" y="14.464645" width="12.699615" height="2.11659438"></rect>
                    <rect id="Rectangle-path" x="176.180161" y="14.4137795" width="2.11660244" height="6.18695913"></rect>
                    <rect id="Rectangle-path" x="165.597145" y="24.996792" width="12.699615" height="2.11660244"></rect>
                    <rect id="Rectangle-path" x="165.597152" y="14.4137936" width="12.699615" height="2.11659438"></rect>
                    <rect id="Rectangle-path" x="165.597149" y="14.4137795" width="2.11658631" height="12.699615"></rect>
                    <rect id="Rectangle-path" x="165.597156" y="18.4841576" width="12.699615" height="2.11659438"></rect>
                    <rect id="Rectangle-path" x="182.367121" y="24.9967759" width="12.699615" height="2.11660244"></rect>
                    <rect id="Rectangle-path" x="182.367125" y="14.4137694" width="12.699615" height="2.11660244"></rect>
                    <rect id="Rectangle-path" x="182.367112" y="14.4137795" width="2.11658631" height="12.699615"></rect>
                    <rect id="Rectangle-path" x="199.137092" y="7.85027219" width="2.11660244" height="19.3139978"></rect>
                    <rect id="Rectangle-path" x="199.137103" y="14.4646692" width="12.699615" height="2.11660244"></rect>
                    <rect id="Rectangle-path" x="209.720104" y="14.4646631" width="2.11658631" height="12.699615"></rect>
                    <polygon id="Shape" points="10.5650741 36.9460463 39.1762303 18.1281773 11.4685141 31.2802317"></polygon>
                    <polygon id="Shape" points="36.6770425 19.544398 31.7494028 22.3413999 0 14.490516"></polygon>
                    <polygon id="Shape" points="2.8166388 15.0237578 8.46944577 16.0938963 19.6032011 0"></polygon>
                    <polygon id="Shape" points="10.6769828 34.7691472 11.2496058 34.1305901 10.1161849 39.7622193"></polygon>
                    <polygon id="Shape" points="12.5471452 27.6837434 11.7512781 31.6387124 11.7512781 31.6390707 10.9249522 32.5603559 11.3187649 29.053667 11.3187649 29.0533086"></polygon>
                    <polygon id="Shape" points="13.8067009 21.4257406 13.0488175 25.1911491 11.5670927 26.8438008 11.9419135 23.5055303"></polygon>
                    <polygon id="Shape" points="15.1318323 14.8416507 14.3080148 18.9338629 12.1902413 21.2960225 12.5976708 17.6678571"></polygon>
                    <polygon id="Shape" points="16.42113 8.43493789 15.6335045 12.3490564 15.6335045 12.3494147 12.8456402 15.4587076 13.2355112 11.9878524"></polygon>
                    <polygon id="Shape" points="17.6892857 2.13429288 16.9228022 5.9430602 13.4834806 9.77870282 13.8626015 6.40388199"></polygon>
                </g>
            </g>
        </g>
    </g>
</svg>