<?xml version="1.0" encoding="UTF-8"?>
<svg width="460px" height="538px" viewBox="0 0 460 538" version="1.1" xmlns="http://www.w3.org/2000/svg" xmlns:xlink="http://www.w3.org/1999/xlink">
    <!-- Generator: Sketch 51.2 (57519) - http://www.bohemiancoding.com/sketch -->
    <title>Group 3</title>
    <desc>Created with Sketch.</desc>
    <defs></defs>
    <g id="Page-1" stroke="none" stroke-width="1" fill="none" fill-rule="evenodd">
        <g id="Top" transform="translate(-491.000000, -1328.000000)" fill="#000000" fill-rule="nonzero">
            <g id="conB" transform="translate(1.000000, 1268.000000)">
                <g id="Group-3" transform="translate(490.000000, 60.000000)">
                    <g id="Group-2" transform="translate(0.000000, 456.000000)">
                        <rect id="Rectangle-path" x="0.529059102" y="0.307647665" width="5.93926247" height="53.9494246"></rect>
                        <rect id="Rectangle-path" x="0.529072299" y="0.307639219" width="35.6355701" height="5.91226676"></rect>
                        <rect id="Rectangle-path" x="0.529060987" y="48.3447999" width="35.6355814" height="5.91226676"></rect>
                        <rect id="Rectangle-path" x="0.529068529" y="18.7835214" width="35.6355814" height="5.91224706"></rect>
                        <rect id="Rectangle-path" x="77.2825746" y="0.449926487" width="5.93926341" height="53.9494359"></rect>
                        <rect id="Rectangle-path" x="47.5862566" y="48.4870956" width="35.6355814" height="5.91226676"></rect>
                        <rect id="Rectangle-path" x="47.5862575" y="18.9257946" width="35.6355814" height="5.91224987"></rect>
                        <rect id="Rectangle-path" x="47.5862848" y="18.9257608" width="5.93922382" height="35.4736015"></rect>
                        <rect id="Rectangle-path" x="124.391664" y="23.3379379" width="5.93926341" height="58.6109439"></rect>
                        <rect id="Rectangle-path" x="94.6953571" y="48.4871294" width="35.6355814" height="5.91226676"></rect>
                        <rect id="Rectangle-path" x="94.6953354" y="18.925834" width="35.6355814" height="5.91224424"></rect>
                        <rect id="Rectangle-path" x="94.6953806" y="18.9258059" width="5.93922948" height="35.4736015"></rect>
                        <rect id="Rectangle-path" x="94.6953684" y="63.4246028" width="5.93924079" height="18.524234"></rect>
                        <rect id="Rectangle-path" x="94.6953571" y="76.0365588" width="35.6355814" height="5.91226676"></rect>
                        <rect id="Rectangle-path" x="171.448814" y="18.9258734" width="5.93926341" height="17.2819194"></rect>
                        <rect id="Rectangle-path" x="141.752502" y="48.4871744" width="35.6355814" height="5.91226676"></rect>
                        <rect id="Rectangle-path" x="141.75251" y="18.9258791" width="35.6355814" height="5.91224424"></rect>
                        <rect id="Rectangle-path" x="141.75253" y="18.9258284" width="5.93922948" height="35.4736015"></rect>
                        <rect id="Rectangle-path" x="141.752519" y="30.2955411" width="35.6355814" height="5.91224424"></rect>
                        <rect id="Rectangle-path" x="188.809657" y="18.8869007" width="5.93926341" height="17.2819194"></rect>
                        <rect id="Rectangle-path" x="188.809665" y="48.5260223" width="35.6355814" height="5.91226676"></rect>
                        <rect id="Rectangle-path" x="188.809669" y="18.8869185" width="35.6355814" height="5.91224424"></rect>
                        <rect id="Rectangle-path" x="188.80967" y="30.2565909" width="35.6355814" height="5.91224424"></rect>
                        <rect id="Rectangle-path" x="218.505952" y="30.2564633" width="5.93926341" height="24.1819168"></rect>
                        <rect id="Rectangle-path" x="235.866834" y="30.2565684" width="35.6355814" height="5.91224424"></rect>
                        <rect id="Rectangle-path" x="297.772115" y="0.592115225" width="5.93926341" height="53.9494471"></rect>
                        <rect id="Rectangle-path" x="282.923994" y="19.0679102" width="35.6355814" height="5.91224424"></rect>
                        <rect id="Rectangle-path" x="359.678194" y="18.9258284" width="5.93926341" height="17.2819194"></rect>
                        <rect id="Rectangle-path" x="329.981865" y="48.4871631" width="35.6355814" height="5.91226676"></rect>
                        <rect id="Rectangle-path" x="329.981886" y="18.9258678" width="35.6355814" height="5.91224424"></rect>
                        <rect id="Rectangle-path" x="329.981876" y="18.9258284" width="5.93921817" height="35.4736015"></rect>
                        <rect id="Rectangle-path" x="329.981897" y="30.2955411" width="35.6355814" height="5.91224424"></rect>
                        <rect id="Rectangle-path" x="377.039026" y="48.4871181" width="35.6355814" height="5.91226676"></rect>
                        <rect id="Rectangle-path" x="377.03904" y="18.9258002" width="35.6355814" height="5.91226676"></rect>
                        <rect id="Rectangle-path" x="377.039004" y="18.9258284" width="5.93921817" height="35.4736015"></rect>
                        <rect id="Rectangle-path" x="424.096176" y="0.592103964" width="5.93926341" height="53.9494359"></rect>
                        <rect id="Rectangle-path" x="424.096206" y="19.0679777" width="35.6355814" height="5.91226676"></rect>
                        <rect id="Rectangle-path" x="453.792494" y="19.0679608" width="5.93921817" height="35.4736015"></rect>
                    </g>
                    <g id="Group" transform="translate(20.000000, 0.000000)">
                        <polygon id="Shape" points="113.647059 396.282353 420 194.682353 123.320611 335.583226"></polygon>
                        <polygon id="Shape" points="393.317647 209.226609 340.474573 239.152941 0 155.152941"></polygon>
                        <polygon id="Shape" points="30.6352941 161.441722 91.2020255 172.941176 210.494118 0"></polygon>
                        <polygon id="Shape" points="114.573432 372.482332 120.564706 365.647059 108.705882 425.929412"></polygon>
                        <polygon id="Shape" points="135.388235 296.470588 126.661116 338.948295 126.661116 338.952143 117.6 348.847059 121.918372 311.184031 121.918372 311.180183"></polygon>
                        <polygon id="Shape" points="147.247059 229.270588 139.221007 269.791634 123.529412 287.576471 127.498797 251.652026"></polygon>
                        <polygon id="Shape" points="162.070588 159.105882 153.214151 202.96527 130.447059 228.282353 134.827124 189.396512"></polygon>
                        <polygon id="Shape" points="175.905882 90.9176471 167.415854 132.771713 167.415854 132.775545 137.364706 166.023529 141.567231 128.909322"></polygon>
                        <polygon id="Shape" points="189.741176 22.7294118 181.45657 63.5969922 144.282353 104.752941 148.380115 68.5415504"></polygon>
                    </g>
                </g>
            </g>
        </g>
    </g>
</svg>